<?xml version="1.0" encoding="UTF-8" standalone="no"?>
<!-- Created with Inkscape (http://www.inkscape.org/) -->

<svg
   xmlns:dc="http://purl.org/dc/elements/1.1/"
   xmlns:cc="http://creativecommons.org/ns#"
   xmlns:rdf="http://www.w3.org/1999/02/22-rdf-syntax-ns#"
   xmlns:svg="http://www.w3.org/2000/svg"
   xmlns="http://www.w3.org/2000/svg"
   xmlns:sodipodi="http://sodipodi.sourceforge.net/DTD/sodipodi-0.dtd"
   xmlns:inkscape="http://www.inkscape.org/namespaces/inkscape"
   width="32"
   height="32"
   viewBox="0 0 31.999996 31.999993"
   id="svg2"
   version="1.1"
   inkscape:version="0.91 r13725"
   sodipodi:docname="nesteo-logo-app.svg"
   inkscape:export-filename="/home/stud/a8r-khe-u1/Schreibtisch/nesteo-logo-app.png"
   inkscape:export-xdpi="23040"
   inkscape:export-ydpi="23040">
  <defs
     id="defs4" />
  <sodipodi:namedview
     id="base"
     pagecolor="#838383"
     bordercolor="#666666"
     borderopacity="1.0"
     inkscape:pageopacity="0"
     inkscape:pageshadow="2"
     inkscape:zoom="22.627417"
     inkscape:cx="-0.55536393"
     inkscape:cy="17.657673"
     inkscape:document-units="px"
     inkscape:current-layer="layer1"
     showgrid="true"
     inkscape:snap-bbox="true"
     inkscape:snap-object-midpoints="true"
     inkscape:snap-center="true"
     inkscape:bbox-paths="true"
     inkscape:bbox-nodes="true"
     inkscape:snap-bbox-edge-midpoints="true"
     inkscape:snap-bbox-midpoints="true"
     units="px"
     inkscape:window-width="1855"
     inkscape:window-height="1056"
     inkscape:window-x="65"
     inkscape:window-y="24"
     inkscape:window-maximized="1">
    <inkscape:grid
       type="xygrid"
       id="grid3336" />
  </sodipodi:namedview>
  <metadata
     id="metadata7">
    <rdf:RDF>
      <cc:Work
         rdf:about="">
        <dc:format>image/svg+xml</dc:format>
        <dc:type
           rdf:resource="http://purl.org/dc/dcmitype/StillImage" />
        <dc:title></dc:title>
      </cc:Work>
    </rdf:RDF>
  </metadata>
  <g
     inkscape:label="Ebene 1"
     inkscape:groupmode="layer"
     id="layer1"
     transform="translate(0,-1020.3622)">
    <path
       id="path4165"
       d="m 23.994613,1035.3056 c -0.08805,-1.6827 -1.598045,-2.9439 -3.282753,-2.9439 l -0.260276,0 c -1.467211,0 -2.895812,-0.4514 -4.10386,-1.2845 -1.16638,-0.8044 -2.667759,-1.1561 -4.255802,-0.7972 -0.500273,0.1128 -4.0941348,1.1439 -4.0919137,5.1928 0.0012,1.9707 1.0744356,3.6888 2.6663697,4.6113 l 0,2.0553 c 0,0.2455 0.198886,0.4444 0.444441,0.4444 l 0.444441,0 c 0.245552,0 0.444441,-0.1989 0.444441,-0.4444 l 0,-1.5072 c 0.426663,0.11 0.872217,0.1738 1.333323,0.1738 0.15111,0 0.296664,-0.02 0.444441,-0.033 l 0,1.3661 c 0,0.2456 0.198889,0.4445 0.444441,0.4445 l 0.444441,0 c 0.245556,0 0.444442,-0.1989 0.444442,-0.4445 l 0,-1.6508 c 0.395553,-0.1405 0.77444,-0.3164 1.120548,-0.5419 1.270544,-0.8281 2.709147,-1.3628 4.225803,-1.3628 0.707771,0 0.444717,-0.01 0.640272,-0.021 l 2.066929,3.79 c 0.07944,0.1453 0.230555,0.2317 0.390275,0.2317 0.03638,0 0.07333,-0.01 0.109721,-0.014 0.196945,-0.05 0.334719,-0.2275 0.334719,-0.4306 0,0 0.004,-6.6732 -0.0045,-6.8339 z m -3.106644,0.8338 c -0.368053,0 -0.666664,-0.2987 -0.666664,-0.6666 0,-0.3684 0.298611,-0.6667 0.666664,-0.6667 0.368054,0 0.666664,0.2983 0.666664,0.6667 0,0.3679 -0.29861,0.6666 -0.666664,0.6666 z m 2.222206,4.2569 -1.107215,-2.0301 c 0.419999,-0.1619 0.798051,-0.4054 1.107215,-0.7215 l 0,2.7516 z"
       inkscape:connector-curvature="0"
       style="fill:#ffffff;fill-opacity:1" />
  </g>
</svg>
